# xmcd
#
# Track frame offsets:
#	150
#	15377
#	45112
#	65367
#	89812
#	109373
#	131753
#	167687
#	192128
#	215901
#
# Disc length: 3481 seconds
#
# Revision: 2
# Processed by: cddbd v1.5.2PL0 Copyright (c) Steve Scherf et al.
# Submitted via: EZCDDA 4.3.2
#
DISCID=8a0d970a
DTITLE=AC-DC - Volts
DYEAR=1997
DGENRE=
TTITLE0=Dirty Eyes
TTITLE1=Touch Too Much
TTITLE2=If You Want Blood You Got it
TTITLE3=Back Seat Confidential
TTITLE4=Get it Hot
TTITLE5=Sin City
TTITLE6=She's Got Balls
TTITLE7=School Days
TTITLE8=Its a Long Way to the Top if You Wanna Rock 'n' Roll
TTITLE9=Ride on
EXTD=\n\nMPC YEAR: 1997
EXTT0=
EXTT1=
EXTT2=
EXTT3=
EXTT4=
EXTT5=
EXTT6=
EXTT7=
EXTT8=
EXTT9=
PLAYORDER=
